<svg width="1024" height="1024" viewBox="0 0 48 48" fill="none" xmlns="http://www.w3.org/2000/svg">
  <defs>
    <linearGradient id="bg" x1="4" y1="2" x2="44" y2="46" gradientUnits="userSpaceOnUse">
      <stop offset="0%" stop-color="#0a64e0"/>
      <stop offset="55%" stop-color="#1f8fff"/>
      <stop offset="100%" stop-color="#22d3ee"/>
    </linearGradient>
    <linearGradient id="trunk" x1="24" y1="24" x2="40" y2="24" gradientUnits="userSpaceOnUse">
      <stop offset="0%" stop-color="#ffffff"/>
      <stop offset="100%" stop-color="#e6fbff"/>
    </linearGradient>
  </defs>

  <rect x="0" y="0" width="48" height="48" rx="13" fill="url(#bg)"/>
  <rect x="1" y="1" width="46" height="46" rx="12" fill="none" stroke="rgba(255,255,255,0.28)" stroke-width="1"/>
  <path d="M13 1 H35" stroke="rgba(255,255,255,0.55)" stroke-width="1.4" stroke-linecap="round"/>

  <g fill="none" stroke-linecap="round">
    <path d="M11 14 C 19 14, 18 24, 24 24" stroke="#ffffff" stroke-opacity="0.62" stroke-width="2.2"/>
    <path d="M11 24 H 24" stroke="#ffffff" stroke-opacity="0.95" stroke-width="2.2"/>
    <path d="M11 34 C 19 34, 18 24, 24 24" stroke="#ffffff" stroke-opacity="0.62" stroke-width="2.2"/>
    <path d="M24 24 H 39" stroke="url(#trunk)" stroke-width="3.4"/>
  </g>

  <circle cx="11" cy="14" r="2.5" fill="#ffffff" fill-opacity="0.82"/>
  <circle cx="11" cy="24" r="2.5" fill="#ffffff"/>
  <circle cx="11" cy="34" r="2.5" fill="#ffffff" fill-opacity="0.82"/>
  <circle cx="24" cy="24" r="6" fill="#ffffff" fill-opacity="0.18"/>
  <circle cx="24" cy="24" r="3.6" fill="#ffffff"/>
  <circle cx="39" cy="24" r="3.6" fill="#ffffff"/>
  <circle cx="39" cy="24" r="6" fill="none" stroke="#ffffff" stroke-opacity="0.5" stroke-width="1.4"/>
</svg>
